<?xml version="1.0" encoding="utf-8"?>
<svg width="795.77px" height="515.84px" viewBox="0 0 795.77 515.84" version="1.1" xmlns:xlink="http://www.w3.org/1999/xlink" xmlns="http://www.w3.org/2000/svg">
  <defs>
    <linearGradient x1="0" y1="0.17999268" x2="1" y2="0.17999268" id="gradient_1">
      <stop offset="0%" stop-color="#000000" stop-opacity="0.5019608" />
      <stop offset="100%" stop-color="#FFFFFF" stop-opacity="0" />
    </linearGradient>
    <linearGradient x1="0.38823867" y1="1.4341687" x2="0.569793" y2="0.12630725" id="gradient_2">
      <stop offset="15.000001%" stop-color="#000000" stop-opacity="0.5019608" />
      <stop offset="100%" stop-color="#FFFFFF" stop-opacity="0" />
    </linearGradient>
    <linearGradient x1="0.40526366" y1="1.2189889" x2="0.7088891" y2="-0.58826303" id="gradient_3">
      <stop offset="9.999999%" stop-color="#000000" stop-opacity="0.5019608" />
      <stop offset="100%" stop-color="#FFFFFF" stop-opacity="0" />
    </linearGradient>
    <linearGradient x1="1.7433472" y1="-6.419998" x2="40.026367" y2="-210.18001" id="gradient_4">
      <stop offset="100%" stop-color="#000000" stop-opacity="0.5019608" />
      <stop offset="100%" stop-color="#E1E1E1" stop-opacity="0.05882353" />
      <stop offset="100%" stop-color="#FFFFFF" stop-opacity="0" />
    </linearGradient>
    <linearGradient x1="0.40914482" y1="1.2770963" x2="0.5161924" y2="0.27365005" id="gradient_5">
      <stop offset="7%" stop-color="#000000" stop-opacity="0.5019608" />
      <stop offset="100%" stop-color="#FFFFFF" stop-opacity="0" />
    </linearGradient>
    <linearGradient x1="-16.00879" y1="87.95999" x2="24.495453" y2="-127.58" id="gradient_6">
      <stop offset="100%" stop-color="#000000" stop-opacity="0.5019608" />
      <stop offset="100%" stop-color="#FFFFFF" stop-opacity="0" />
    </linearGradient>
    <linearGradient x1="0.11791992" y1="0.9410275" x2="1.1926136" y2="-0.17098536" id="gradient_7">
      <stop offset="0%" stop-color="#000000" stop-opacity="0.5019608" />
      <stop offset="100%" stop-color="#FFFFFF" stop-opacity="0" />
    </linearGradient>
    <path d="M0 0L795.77 0L795.77 515.84L0 515.84L0 0Z" id="path_1" />
    <clipPath id="mask_1">
      <use xlink:href="#path_1" />
    </clipPath>
  </defs>
  <g id="logo">
    <path d="M0 0L795.77 0L795.77 515.84L0 515.84L0 0Z" id="Background" fill="none" fill-rule="evenodd" stroke="none" />
    <g clip-path="url(#mask_1)">
      <g id="Group">
        <g id="Livello_2">
          <g id="Livello_1-2">
            <g id="Group">
              <g id="Group" transform="translate(0 429.71002)">
                <path d="M20.79 48.96L15 66.51L0 66.51L22.41 4.40997L39.87 4.40997L62 66.51L46.71 66.51L41 48.96L20.79 48.96ZM24.3 37.89L37.53 37.89L31 16.65L24.3 37.89Z" id="Shape" fill="#FFBC27" fill-rule="evenodd" stroke="none" />
                <path d="M102 17.64L102 29.07C90.81 28.35 86 32.85 86 46.44L86 66.51L71.91 66.51L71.91 18.51L86 18.51L86 27.69L89.6 21.03C91.9273 18.6926 95.0721 17.3514 98.37 17.29C99.5883 17.2923 100.804 17.4095 102 17.64L102 17.64Z" id="Shape" fill="#FFBC27" fill-rule="evenodd" stroke="none" />
                <path d="M160.47 42.48C160.47 57.42 151.02 67.77 135.18 67.77C119.34 67.77 109.89 57.42 109.89 42.48C109.89 27.54 119.25 17.28 135.18 17.28C151.11 17.28 160.47 27.54 160.47 42.48L160.47 42.48ZM145.89 42.48C145.89 32.48 141.89 27 135.18 27C128.47 27 124.38 32.49 124.38 42.48C124.38 52.47 128.43 58.05 135.18 58.05C141.93 58.05 145.89 52.47 145.89 42.48L145.89 42.48Z" id="Shape" fill="#FFBC27" fill-rule="evenodd" stroke="none" />
                <path d="M219.24 66.51L205.24 66.51L205.24 58.29L201.24 64.68C197.912 66.8685 193.979 67.95 190 67.77C180.1 67.77 174.16 62.19 173.08 55.62C172.711 52.6651 172.561 49.687 172.63 46.71L172.63 18.54L186.63 18.54L186.63 43.65C186.639 45.8429 186.759 48.0356 186.99 50.2181C187.62 55.08 190.14 57.96 195.63 57.96C201.39 57.96 205.17 53.01 205.17 44.19L205.17 18.54L219.17 18.54L219.24 66.51Z" id="Shape" fill="#FFBC27" fill-rule="evenodd" stroke="none" />
                <path d="M282.06 39.42L282.06 66.51L267.93 66.51L267.93 41.58C267.93 39.78 267.93 37.35 267.75 34.92C267.39 30.06 264.69 27 259.2 27C253.71 27 249.48 32 249.48 44.28L249.48 66.51L235.35 66.51L235.35 18.51L249.48 18.51L249.48 26.07L253.48 20.31C256.782 18.1704 260.669 17.1146 264.6 17.29C274.68 17.29 280.53 22.15 281.6 30.52C281.972 33.4714 282.125 36.446 282.06 39.4199L282.06 39.42Z" id="Shape" fill="#FFBC27" fill-rule="evenodd" stroke="none" />
                <path d="M345.87 66.51L331.74 66.51L331.74 59.29L328.14 64.6C325.44 66.67 320.67 67.75 315.81 67.75C302.58 67.75 294.57 57.67 294.57 43.45C294.57 26.29 305.1 17.29 317.43 17.29C321.43 17.29 326.16 18.29 328.59 19.81L331.74 24.81L331.74 0.359985L345.87 0.359985L345.87 66.51ZM331.74 43.11L331.74 40.86C331.74 30.6 326.07 27 320.74 27C313.9 27 309.04 32.22 309.04 42.66C309.04 52.11 313.63 58.05 320.29 58.05C326.7 58.05 331.74 54.09 331.74 43.11L331.74 43.11Z" id="Shape" fill="#FFBC27" fill-rule="evenodd" stroke="none" />
                <path d="M414.08 47.88C414.08 59.4 405.08 65.07 396.71 66.15C393.784 66.4627 390.841 66.5829 387.9 66.5099L364.32 66.5099L364.32 4.40994L388 4.40994C390.672 4.34863 393.345 4.4689 396 4.76993C406.07 6.02994 411.83 12.1499 411.83 20.4299C411.83 26.4299 408.59 30.7799 402.38 32.9399C410.3 35.01 414.08 40.05 414.08 47.88L414.08 47.88ZM378.45 29.43L386.91 29.43C388.291 29.436 389.671 29.3458 391.04 29.16C394.92 28.53 397.04 26.46 397.04 22.32C397.04 18.18 394.62 16.2 390.93 15.66C389.498 15.4748 388.054 15.3846 386.61 15.39L378.42 15.39L378.45 29.43ZM399.32 47.7C399.32 42.7 396.08 40.3199 392.12 39.96C390.688 39.81 389.249 39.7498 387.81 39.78L378.45 39.78L378.45 55.44L388.35 55.44C389.79 55.44 391.23 55.44 392.35 55.35C394.291 55.2672 396.119 54.4127 397.428 52.9763C398.737 51.54 399.418 49.6406 399.32 47.7L399.32 47.7Z" id="Shape" fill="#4D75F4" fill-rule="evenodd" stroke="none" />
                <path d="M442.08 7.10999C442.08 11.52 439.02 14.31 434.52 14.31C430.02 14.31 427.05 11.52 427.05 7.10999C427.05 2.69998 430.05 0 434.52 0C438.99 0 442.08 2.78998 442.08 7.10999L442.08 7.10999ZM427.5 66.51L427.5 18.51L441.63 18.51L441.63 66.51L427.5 66.51Z" id="Shape" fill="#4D75F4" fill-rule="evenodd" stroke="none" />
                <path d="M495.53 32.49L481.58 32.49C480.77 28.49 478.7 26.28 475.19 26.28C472.13 26.28 470.24 28.17 470.24 30.69C470.24 33.93 472.85 35.69 481.4 37.89C490.67 40.23 496.61 44.1 496.61 53.1C496.61 63.1 487.52 67.77 476.27 67.77C464.03 67.77 455.48 62.55 454.27 51.77L468.21 51.77C469.21 56.27 472.44 58.7 476.4 58.7C479.82 58.7 482.52 57.26 482.52 54.2C482.52 50.78 479.46 48.89 471 46.91C462 44.66 456.15 40.61 456.15 32.42C456.15 23.06 464.07 17.3 476.15 17.3C487.7 17.29 494.36 23.76 495.53 32.49L495.53 32.49Z" id="Shape" fill="#4D75F4" fill-rule="evenodd" stroke="none" />
                <path d="M553.13 36.29L539.36 36.29C538.36 29.72 535.04 27.02 530.36 27.02C524.42 27.02 520.64 31.88 520.64 42.02C520.64 53.18 524.51 58.02 530.36 58.02C534.68 58.02 538.1 55.02 539.18 49.47L553.18 49.47C551.29 61.53 542.11 67.74 529.6 67.74C516.28 67.74 506.2 59.19 506.2 42.9C506.2 26.43 517.2 17.25 530.77 17.25C544.13 17.29 552.41 25.56 553.13 36.29L553.13 36.29Z" id="Shape" fill="#4D75F4" fill-rule="evenodd" stroke="none" />
                <path d="M610.91 46.17L577.25 46.17C578.06 55.35 582.02 58.05 587.33 58.05C592.28 58.05 595.61 55.35 596.42 50.85L610.42 50.85C607.81 61.92 598.81 67.77 587.11 67.77C573.7 67.77 563.17 59.58 563.17 42.66C563.12 28.29 572.75 17.29 588 17.29C603.25 17.29 611.22 28.9 611.22 41.68C611.193 43.181 611.09 44.6796 610.91 46.17L610.91 46.17ZM577.61 37.29L596.51 37.29C595.7 30.54 592.51 27.03 587.33 27.03C582.29 27 578.78 30.15 577.61 37.29L577.61 37.29Z" id="Shape" fill="#4D75F4" fill-rule="evenodd" stroke="none" />
                <path d="M672.74 54.36C672.74 57.36 672.74 61.02 672.65 63.63C672.11 79.02 661.85 86.1299 646.19 86.1299C632.06 86.1299 623.78 80.2799 622.7 69.5699L622.61 68.67L636.29 68.67L636.38 69.4799C636.83 73.3499 640.7 75.6899 646.55 75.6899C653.48 75.6899 658.07 72.36 658.43 65.2499C658.52 63.5399 658.61 61.4699 658.61 59.2499L658.61 57.9899L655 63.29C652.3 65.29 648.25 66.44 643.39 66.44C630.07 66.44 621.39 57.17 621.39 42.95C621.44 25.74 632 17.29 644.3 17.29C648.3 17.29 653.03 18.29 655.46 19.81L658.61 24.81L658.61 18.51L672.74 18.51L672.74 54.36ZM658.61 41.76L658.61 40.86C658.61 30.6 652.94 27 647.61 27C640.77 27 635.91 31.41 635.91 41.85C635.91 51.3 640.5 56.7 647.16 56.7C653.57 56.7 658.61 52.74 658.61 41.76L658.61 41.76Z" id="Shape" fill="#4D75F4" fill-rule="evenodd" stroke="none" />
                <path d="M702.62 50.13C702.62 52.2 702.62 53.28 702.71 54.54C702.98 56.7 703.97 57.42 708.2 57.24L708.2 66.87C705.39 67.1667 702.566 67.3169 699.74 67.32C692.99 67.32 689.03 64.71 688.67 58.41C688.49 56.07 688.49 53.73 688.49 50.41L688.49 0.410004L702.62 0.410004L702.62 50.13Z" id="Shape" fill="#4D75F4" fill-rule="evenodd" stroke="none" />
                <path d="M735 7.10999C735 11.52 731.94 14.31 727.44 14.31C722.94 14.31 719.97 11.52 719.97 7.10999C719.97 2.69998 722.97 0 727.44 0C731.91 0 735 2.78998 735 7.10999L735 7.10999ZM720.42 66.51L720.42 18.51L734.55 18.51L734.55 66.51L720.42 66.51Z" id="Shape" fill="#4D75F4" fill-rule="evenodd" stroke="none" />
                <path d="M795.5 46.17L761.84 46.17C762.65 55.35 766.61 58.05 771.92 58.05C776.92 58.05 780.2 55.35 781.01 50.85L795.01 50.85C792.4 61.92 783.4 67.77 771.7 67.77C758.29 67.77 747.76 59.58 747.76 42.66C747.76 28.26 757.39 17.28 772.6 17.28C787.81 17.28 795.82 28.89 795.82 41.67C795.79 43.1745 795.683 44.6765 795.5 46.17L795.5 46.17ZM762.2 37.29L781.1 37.29C780.29 30.54 777.1 27.03 771.92 27.03C766.88 27 763.37 30.15 762.2 37.29L762.2 37.29Z" id="Shape" fill="#4D75F4" fill-rule="evenodd" stroke="none" />
              </g>
              <g id="Group" transform="translate(197.85327 0)">
                <path d="M92.6467 216.94L92.6467 216.94L93.7767 217.94C93.3967 217.654 93.0267 217.311 92.6467 216.94L92.6467 216.94Z" id="Shape" fill="#0000FF" fill-rule="evenodd" stroke="none" />
                <path d="M336.507 263.51L336.337 264.25C332.364 283.219 324.034 301.004 312.007 316.2C300.058 331.19 284.693 343.099 267.197 350.93C249.277 359.09 229.573 363.167 208.087 363.16L60.7267 363.16L78.8767 280C95.8108 281.555 112.862 281.321 129.746 279.3L121.747 315.96L199.417 315.96C225.23 315.96 245.117 311.047 259.077 301.22C273.037 291.393 281.967 277.577 285.867 259.77L286.037 259.02C288.607 247.25 288.887 237.12 286.877 228.55L286.877 228.55C301.527 220.96 315.517 212.89 328.717 204.42C332.432 210.306 335.136 216.772 336.717 223.55C339.67 235.85 339.6 249.17 336.507 263.51L336.507 263.51Z" id="Shape" fill="#4D75F4" fill-rule="evenodd" stroke="none" />
                <path d="M367.497 46C362.863 31.3333 353.513 20 339.447 12C325.38 4 306.613 0 283.147 0L139.997 0L99.4867 185.53C105.959 189.079 112.822 191.864 119.937 193.83C158.317 204.83 213.887 199.65 274.307 179.04C294.991 171.942 315.199 163.525 334.807 153.84C341.756 147.943 347.84 141.096 352.877 133.5C359.99 122.83 365.05 110.926 367.797 98.4C372.217 78.0933 372.117 60.6267 367.497 46L367.497 46ZM315.677 101.45C311.91 118.783 304.27 131.853 292.757 140.66C281.243 149.467 266.087 153.88 247.287 153.9L157.147 153.9L180.407 47.22L263.577 47.22C284.91 47.22 299.91 51.71 308.577 60.69C317.243 69.67 319.61 83.2433 315.677 101.41L315.677 101.45Z" id="Shape" fill="#4D75F4" fill-rule="evenodd" stroke="none" />
                <g id="Group" transform="translate(0 51.95005)">
                  <path d="M92.6467 164.99L92.6467 164.99L93.7767 165.99C93.3967 165.704 93.0267 165.361 92.6467 164.99L92.6467 164.99Z" id="Shape" fill="#FFBC27" fill-rule="evenodd" stroke="none" />
                  <path d="M426.667 44.6099C403.69 62.4901 379.251 78.4063 353.606 92.1901C347.347 95.5833 341.08 98.8166 334.807 101.89C315.2 111.575 294.991 119.992 274.307 127.09C213.887 147.7 158.307 152.88 119.937 141.88C112.822 139.914 105.959 137.129 99.4867 133.58C88.4268 127.44 79.8368 119.25 74.2768 108.95C70.9755 102.807 68.8203 96.1147 67.9168 89.1999L67.9168 89.1999C67.8468 88.8099 67.7968 88.4299 67.7468 88.0299C65.8068 71.7699 69.8568 53.4399 79.0968 34.1599C79.4468 33.4399 79.7868 32.7099 80.0968 31.9999C85.7866 20.753 92.4804 10.0429 100.097 0C95.1568 3.86662 90.3834 7.77327 85.7768 11.7199C58.1868 35.2899 36.2668 59.9999 21.4868 83.8499C7.13675 107 -0.513245 129.33 0.0267639 148.99C0.076767 151.13 0.226761 153.22 0.476761 155.3C1.30173 162.632 3.51801 169.739 7.00671 176.24C19.2568 198.91 46.1968 211.45 81.8867 214.24C98.9532 215.398 116.094 214.758 133.027 212.33C172.387 207.05 217.147 193.33 262.487 171.66C262.487 171.66 262.487 171.66 262.487 171.66C268.347 168.867 274.227 165.923 280.127 162.83C282.127 161.77 284.227 160.67 286.287 159.56C297.487 153.493 308.267 147.16 318.627 140.56C337.137 128.926 354.843 116.06 371.627 102.05C376.017 98.37 380.227 94.6699 384.337 90.9499C386.047 89.3899 387.737 87.8299 389.397 86.2499C399.453 76.85 408.937 66.8553 417.797 56.3197C420.917 52.5899 423.897 48.8699 426.687 45.1299C426.987 44.7499 427.287 44.3499 427.567 43.9699C427.287 44.13 426.987 44.38 426.667 44.6099L426.667 44.6099ZM92.6467 165.05L92.6467 165.05C93.0267 165.411 93.3967 165.744 93.7767 166.05L92.6467 165.05Z" id="Shape" fill="#FFBC27" fill-rule="evenodd" stroke="none" />
                  <path d="M93.7767 166.05L92.6467 165.05L92.6467 165.05C93.0267 165.283 93.3967 165.683 93.7767 166.05L93.7767 166.05Z" id="Shape" fill="#FFBC27" fill-rule="evenodd" stroke="none" />
                </g>
                <path d="M490.957 99.42L488.267 102.42L465.267 65.23C459.267 71.56 453.387 77.36 448.957 81.23L452.897 97.69L450.197 100.69L439.297 85.8L423.497 76.53L426.187 73.53L442.947 75.75C446.367 70.95 451.537 64.48 457.217 57.88L417.857 38.88L420.547 35.88L471.267 42.64C480.147 33.75 487.857 27.5 490.147 29.56C492.437 31.62 486.997 39.96 479.057 49.66L490.957 99.42Z" id="Shape" fill="#FFBC27" fill-rule="evenodd" stroke="none" />
                <g id="Group" opacity="0.8">
                  <path d="M92.6467 216.94L92.6467 216.94L93.7767 217.94C93.3967 217.654 93.0267 217.311 92.6467 216.94L92.6467 216.94Z" id="Shape" fill="url(#gradient_1)" fill-rule="evenodd" stroke="none" />
                  <path d="M336.507 263.51L336.337 264.25C332.364 283.219 324.034 301.004 312.007 316.2C300.058 331.19 284.693 343.099 267.197 350.93C249.277 359.09 229.573 363.167 208.087 363.16L60.7267 363.16L78.8767 280C95.8108 281.555 112.862 281.321 129.746 279.3L121.747 315.96L199.417 315.96C225.23 315.96 245.117 311.047 259.077 301.22C273.037 291.393 281.967 277.577 285.867 259.77L286.037 259.02C288.607 247.25 288.887 237.12 286.877 228.55L286.877 228.55C301.527 220.96 315.517 212.89 328.717 204.42C332.432 210.306 335.136 216.772 336.717 223.55C339.67 235.85 339.6 249.17 336.507 263.51L336.507 263.51Z" id="Shape" fill="url(#gradient_2)" fill-rule="evenodd" stroke="none" />
                  <path d="M367.497 46C362.863 31.3333 353.513 20 339.447 12C325.38 4 306.613 0 283.147 0L139.997 0L99.4867 185.53C105.959 189.079 112.822 191.864 119.937 193.83C158.317 204.83 213.887 199.65 274.307 179.04C294.991 171.942 315.199 163.525 334.807 153.84C341.756 147.943 347.84 141.096 352.877 133.5C359.99 122.83 365.05 110.926 367.797 98.4C372.217 78.0933 372.117 60.6267 367.497 46L367.497 46ZM315.677 101.45C311.91 118.783 304.27 131.853 292.757 140.66C281.243 149.467 266.087 153.88 247.287 153.9L157.147 153.9L180.407 47.22L263.577 47.22C284.91 47.22 299.91 51.71 308.577 60.69C317.243 69.67 319.61 83.2433 315.677 101.41L315.677 101.45Z" id="Shape" fill="url(#gradient_3)" fill-rule="evenodd" stroke="none" />
                  <g id="Group" transform="translate(0 51.95005)">
                    <path d="M92.6467 164.99L92.6467 164.99L93.7767 165.99C93.3967 165.704 93.0267 165.361 92.6467 164.99L92.6467 164.99Z" id="Shape" fill="url(#gradient_4)" fill-rule="evenodd" stroke="none" />
                    <path d="M426.667 44.6099C403.69 62.4901 379.251 78.4063 353.606 92.1901C347.347 95.5833 341.08 98.8166 334.807 101.89C315.2 111.575 294.991 119.992 274.307 127.09C213.887 147.7 158.307 152.88 119.937 141.88C112.822 139.914 105.959 137.129 99.4867 133.58C88.4268 127.44 79.8368 119.25 74.2768 108.95C70.9755 102.807 68.8203 96.1147 67.9168 89.1999L67.9168 89.1999C67.8468 88.8099 67.7968 88.4299 67.7468 88.0299C65.8068 71.7699 69.8568 53.4399 79.0968 34.1599C79.4468 33.4399 79.7868 32.7099 80.0968 31.9999C85.7866 20.753 92.4804 10.0429 100.097 0C95.1568 3.86662 90.3834 7.77327 85.7768 11.7199C58.1868 35.2899 36.2668 59.9999 21.4868 83.8499C7.13675 107 -0.513245 129.33 0.0267639 148.99C0.076767 151.13 0.226761 153.22 0.476761 155.3C1.30173 162.632 3.51801 169.739 7.00671 176.24C19.2568 198.91 46.1968 211.45 81.8867 214.24C98.9532 215.398 116.094 214.758 133.027 212.33C172.387 207.05 217.147 193.33 262.487 171.66C262.487 171.66 262.487 171.66 262.487 171.66C268.347 168.867 274.227 165.923 280.127 162.83C282.127 161.77 284.227 160.67 286.287 159.56C297.487 153.493 308.267 147.16 318.627 140.56C337.137 128.926 354.843 116.06 371.627 102.05C376.017 98.37 380.227 94.6699 384.337 90.9499C386.047 89.3899 387.737 87.8299 389.397 86.2499C399.453 76.85 408.937 66.8553 417.797 56.3197C420.917 52.5899 423.897 48.8699 426.687 45.1299C426.987 44.7499 427.287 44.3499 427.567 43.9699C427.287 44.13 426.987 44.38 426.667 44.6099L426.667 44.6099ZM92.6467 165.05L92.6467 165.05C93.0267 165.411 93.3967 165.744 93.7767 166.05L92.6467 165.05Z" id="Shape" fill="url(#gradient_5)" fill-rule="evenodd" stroke="none" />
                    <path d="M93.7767 166.05L92.6467 165.05L92.6467 165.05C93.0267 165.283 93.3967 165.683 93.7767 166.05L93.7767 166.05Z" id="Shape" fill="url(#gradient_6)" fill-rule="evenodd" stroke="none" />
                  </g>
                  <path d="M490.957 99.42L488.267 102.42L465.267 65.23C459.267 71.56 453.387 77.36 448.957 81.23L452.897 97.69L450.197 100.69L439.297 85.8L423.497 76.53L426.187 73.53L442.947 75.75C446.367 70.95 451.537 64.48 457.217 57.88L417.857 38.88L420.547 35.88L471.267 42.64C480.147 33.75 487.857 27.5 490.147 29.56C492.437 31.62 486.997 39.96 479.057 49.66L490.957 99.42Z" id="Shape" fill="url(#gradient_7)" fill-rule="evenodd" stroke="none" />
                </g>
              </g>
            </g>
          </g>
        </g>
      </g>
    </g>
  </g>
</svg>