<?xml version="1.0" encoding="utf-8"?>
<svg width="795px" height="515px" viewBox="0 0 795 515" version="1.1" xmlns:xlink="http://www.w3.org/1999/xlink" xmlns="http://www.w3.org/2000/svg">
  <defs>
    <linearGradient x1="0" y1="0.17999268" x2="1" y2="0.17999268" id="gradient_1">
      <stop offset="0%" stop-color="#000000" stop-opacity="0.5019608" />
      <stop offset="100%" stop-color="#FFFFFF" stop-opacity="0" />
    </linearGradient>
    <linearGradient x1="0.38823867" y1="1.4341687" x2="0.569793" y2="0.12630725" id="gradient_2">
      <stop offset="15.000001%" stop-color="#000000" stop-opacity="0.5019608" />
      <stop offset="100%" stop-color="#FFFFFF" stop-opacity="0" />
    </linearGradient>
    <linearGradient x1="0.40526366" y1="1.2189889" x2="0.7088891" y2="-0.58826303" id="gradient_3">
      <stop offset="9.999999%" stop-color="#000000" stop-opacity="0.5019608" />
      <stop offset="100%" stop-color="#FFFFFF" stop-opacity="0" />
    </linearGradient>
    <linearGradient x1="1.7433472" y1="-6.419998" x2="40.026367" y2="-210.18001" id="gradient_4">
      <stop offset="100%" stop-color="#000000" stop-opacity="0.5019608" />
      <stop offset="100%" stop-color="#E1E1E1" stop-opacity="0.05882353" />
      <stop offset="100%" stop-color="#FFFFFF" stop-opacity="0" />
    </linearGradient>
    <linearGradient x1="0.40914482" y1="1.2770963" x2="0.5161924" y2="0.27365005" id="gradient_5">
      <stop offset="7%" stop-color="#000000" stop-opacity="0.5019608" />
      <stop offset="100%" stop-color="#FFFFFF" stop-opacity="0" />
    </linearGradient>
    <linearGradient x1="-16.00879" y1="87.95999" x2="24.495453" y2="-127.58" id="gradient_6">
      <stop offset="100%" stop-color="#000000" stop-opacity="0.5019608" />
      <stop offset="100%" stop-color="#FFFFFF" stop-opacity="0" />
    </linearGradient>
    <linearGradient x1="0.11791992" y1="0.9410275" x2="1.1926136" y2="-0.17098536" id="gradient_7">
      <stop offset="0%" stop-color="#000000" stop-opacity="0.5019608" />
      <stop offset="100%" stop-color="#FFFFFF" stop-opacity="0" />
    </linearGradient>
    <path d="M0 0L795 0L795 515L0 515L0 0Z" id="path_1" />
    <path d="M0 0L794.474 0L794.474 515L0 515L0 0L0 0Z" id="path_2" />
    <clipPath id="mask_1">
      <use xlink:href="#path_1" />
    </clipPath>
    <clipPath id="mask_2">
      <use xlink:href="#path_2" />
    </clipPath>
  </defs>
  <g id="logo-icona">
    <path d="M0 0L795 0L795 515L0 515L0 0Z" id="Background" fill="none" fill-rule="evenodd" stroke="none" />
    <g clip-path="url(#mask_1)">
      <g id="logo">
        <path d="M0 0L794.474 0L794.474 515L0 515L0 0L0 0Z" id="Background" fill="none" fill-rule="evenodd" stroke="none" />
        <g id="Mask-group">
          <path d="M0 0L794.474 0L794.474 515L0 515L0 0L0 0Z" id="path_1" fill="none" fill-rule="evenodd" stroke="none" />
          <g clip-path="url(#mask_2)">
            <g id="Group" transform="translate(152 76.000015)">
              <g id="Group">
                <g id="Livello_2">
                  <g id="Livello_1-2">
                    <g id="Group#1">
                      <g id="Group#2">
                        <path d="M92.4959 216.587L92.4959 216.587L93.624 217.587C93.2446 217.301 92.8753 216.959 92.4959 216.587L92.4959 216.587L92.4959 216.587Z" id="Shape" fill="#0000FF" fill-rule="evenodd" stroke="none" />
                        <path d="M335.959 263.081L335.789 263.82C331.822 282.757 323.507 300.513 311.499 315.685C299.57 330.65 284.229 342.54 266.762 350.359C248.871 358.505 229.2 362.575 207.748 362.569L60.6278 362.569L78.7483 279.544C95.6548 281.097 112.678 280.862 129.535 278.845L121.548 315.445L199.092 315.445C224.863 315.445 244.718 310.54 258.655 300.729C272.592 290.919 281.508 277.125 285.401 259.347L285.571 258.598C288.137 246.847 288.416 236.734 286.41 228.178L286.41 228.178C301.036 220.6 315.003 212.543 328.182 204.087C331.89 209.963 334.59 216.419 336.169 223.186C339.117 235.466 339.047 248.764 335.959 263.081L335.959 263.081L335.959 263.081Z" id="Shape#1" fill="#4D75F4" fill-rule="evenodd" stroke="none" />
                        <path d="M366.898 45.9251C362.272 31.2823 352.938 19.9674 338.894 11.9805C324.85 3.99349 306.114 0 282.686 0L139.769 0L99.3247 185.228C105.787 188.771 112.638 191.552 119.741 193.514C158.059 204.496 213.538 199.325 273.86 178.748C294.511 171.662 314.686 163.259 334.261 153.59C341.2 147.702 347.273 140.866 352.302 133.283C359.404 122.63 364.455 110.745 367.198 98.2398C371.611 77.9662 371.511 60.5279 366.898 45.9251L366.898 45.9251L366.898 45.9251ZM315.163 101.285C311.402 118.59 303.775 131.639 292.28 140.431C280.785 149.223 265.653 153.629 246.884 153.649L156.891 153.649L180.113 47.1431L263.148 47.1431C284.446 47.1431 299.422 51.6258 308.074 60.5912C316.727 69.5565 319.09 83.1078 315.163 101.245L315.163 101.285L315.163 101.285Z" id="Shape#2" fill="#4D75F4" fill-rule="evenodd" stroke="none" />
                        <g id="Group#3" transform="translate(0 51.865448)">
                          <path d="M92.4959 164.721L92.4959 164.721L93.624 165.721C93.2446 165.435 92.8753 165.092 92.4959 164.721L92.4959 164.721L92.4959 164.721Z" id="Shape#3" fill="#FFBC27" fill-rule="evenodd" stroke="none" />
                          <path d="M425.972 44.5373C403.033 62.3884 378.633 78.2786 353.031 92.04C346.781 95.4277 340.525 98.6557 334.262 101.724C314.686 111.393 294.511 119.797 273.86 126.883C213.538 147.459 158.049 152.631 119.741 141.649C112.638 139.686 105.787 136.905 99.3247 133.362C88.2828 127.232 79.7068 119.056 74.1558 108.772C70.8599 102.64 68.7082 95.9582 67.8062 89.0547L67.8062 89.0547C67.7363 88.6653 67.6864 88.2859 67.6364 87.8866C65.6996 71.653 69.743 53.3529 78.968 34.1043C79.3174 33.3855 79.6568 32.6567 79.9663 31.9478C85.6469 20.7192 92.3298 10.0265 99.9337 0C95.0018 3.86032 90.2362 7.7606 85.6371 11.7008C58.092 35.2325 36.2077 59.9022 21.4518 83.7134C7.12512 106.826 -0.512421 129.119 0.0267181 148.747C0.0766296 150.884 0.226379 152.97 0.475983 155.047C1.29961 162.367 3.51227 169.462 6.9953 175.953C19.2254 198.586 46.1215 211.106 81.7534 213.891C98.7921 215.047 115.905 214.408 132.81 211.984C172.106 206.713 216.793 193.015 262.059 171.38C262.059 171.38 262.059 171.38 262.059 171.38C267.91 168.592 273.78 165.653 279.671 162.565C281.667 161.507 283.764 160.408 285.821 159.3C297.002 153.243 307.765 146.92 318.108 140.331C336.588 128.716 354.266 115.871 371.022 101.884C375.405 98.2098 379.608 94.5158 383.711 90.8018C385.418 89.2444 387.105 87.6869 388.763 86.1095C398.803 76.7248 408.271 66.7464 417.117 56.228C420.231 52.5043 423.207 48.7904 425.992 45.0564C426.292 44.6771 426.591 44.2777 426.871 43.8983C426.591 44.0581 426.291 44.3077 425.972 44.5373L425.972 44.5373L425.972 44.5373ZM92.4959 164.781L92.4959 164.781C92.8753 165.142 93.2446 165.475 93.624 165.781L92.4959 164.781L92.4959 164.781Z" id="Shape#4" fill="#FFBC27" fill-rule="evenodd" stroke="none" />
                          <path d="M93.624 165.781L92.4959 164.781L92.4959 164.781C92.8753 165.014 93.2446 165.414 93.624 165.781L93.624 165.781L93.624 165.781Z" id="Shape#5" fill="#FFBC27" fill-rule="evenodd" stroke="none" />
                        </g>
                        <path d="M490.157 99.2581L487.472 102.253L464.509 65.1238C458.519 71.4435 452.648 77.234 448.226 81.0977L452.159 97.5309L449.464 100.526L438.581 85.6603L422.807 76.4054L425.493 73.4103L442.225 75.6266C445.64 70.8345 450.802 64.375 456.472 57.7857L417.176 38.8167L419.862 35.8216L470.499 42.5706C479.365 33.695 487.062 27.4552 489.349 29.5119C491.635 31.5685 486.204 39.8949 478.277 49.5791L490.157 99.2581L490.157 99.2581Z" id="Shape#6" fill="#FFBC27" fill-rule="evenodd" stroke="none" />
                        <g id="Group#4" opacity="0.8">
                          <path d="M92.4959 216.587L92.4959 216.587L93.624 217.587C93.2446 217.301 92.8753 216.959 92.4959 216.587L92.4959 216.587L92.4959 216.587Z" id="Shape#7" fill="url(#gradient_1)" fill-rule="evenodd" stroke="none" />
                          <path d="M335.959 263.081L335.789 263.82C331.822 282.757 323.507 300.513 311.499 315.685C299.57 330.65 284.229 342.54 266.762 350.359C248.871 358.505 229.2 362.575 207.748 362.569L60.6278 362.569L78.7483 279.544C95.6548 281.097 112.678 280.862 129.535 278.845L121.548 315.445L199.092 315.445C224.863 315.445 244.718 310.54 258.655 300.729C272.592 290.919 281.508 277.125 285.401 259.347L285.571 258.598C288.137 246.847 288.416 236.734 286.41 228.178L286.41 228.178C301.036 220.6 315.003 212.543 328.182 204.087C331.89 209.963 334.59 216.419 336.169 223.186C339.117 235.466 339.047 248.764 335.959 263.081L335.959 263.081L335.959 263.081Z" id="Shape#8" fill="url(#gradient_2)" fill-rule="evenodd" stroke="none" />
                          <path d="M366.898 45.9251C362.272 31.2823 352.938 19.9674 338.894 11.9805C324.85 3.99349 306.114 0 282.686 0L139.769 0L99.3247 185.228C105.787 188.771 112.638 191.552 119.741 193.514C158.059 204.496 213.538 199.325 273.86 178.748C294.511 171.662 314.686 163.259 334.261 153.59C341.2 147.702 347.273 140.866 352.302 133.283C359.404 122.63 364.455 110.745 367.198 98.2398C371.611 77.9662 371.511 60.5279 366.898 45.9251L366.898 45.9251L366.898 45.9251ZM315.163 101.285C311.402 118.59 303.775 131.639 292.28 140.431C280.785 149.223 265.653 153.629 246.884 153.649L156.891 153.649L180.113 47.1431L263.148 47.1431C284.446 47.1431 299.422 51.6258 308.074 60.5912C316.727 69.5565 319.09 83.1078 315.163 101.245L315.163 101.285L315.163 101.285Z" id="Shape#9" fill="url(#gradient_3)" fill-rule="evenodd" stroke="none" />
                          <g id="Group#5" transform="translate(0 51.865448)">
                            <path d="M92.4959 164.721L92.4959 164.721L93.624 165.721C93.2446 165.435 92.8753 165.092 92.4959 164.721L92.4959 164.721L92.4959 164.721Z" id="Shape#10" fill="url(#gradient_4)" fill-rule="evenodd" stroke="none" />
                            <path d="M425.972 44.5373C403.033 62.3884 378.633 78.2786 353.031 92.04C346.781 95.4277 340.525 98.6557 334.262 101.724C314.686 111.393 294.511 119.797 273.86 126.883C213.538 147.459 158.049 152.631 119.741 141.649C112.638 139.686 105.787 136.905 99.3247 133.362C88.2828 127.232 79.7068 119.056 74.1558 108.772C70.8599 102.64 68.7082 95.9582 67.8062 89.0547L67.8062 89.0547C67.7363 88.6653 67.6864 88.2859 67.6364 87.8866C65.6996 71.653 69.743 53.3529 78.968 34.1043C79.3174 33.3855 79.6568 32.6567 79.9663 31.9478C85.6469 20.7192 92.3298 10.0265 99.9337 0C95.0018 3.86032 90.2362 7.7606 85.6371 11.7008C58.092 35.2325 36.2077 59.9022 21.4518 83.7134C7.12512 106.826 -0.512421 129.119 0.0267181 148.747C0.0766296 150.884 0.226379 152.97 0.475983 155.047C1.29961 162.367 3.51227 169.462 6.9953 175.953C19.2254 198.586 46.1215 211.106 81.7534 213.891C98.7921 215.047 115.905 214.408 132.81 211.984C172.106 206.713 216.793 193.015 262.059 171.38C262.059 171.38 262.059 171.38 262.059 171.38C267.91 168.592 273.78 165.653 279.671 162.565C281.667 161.507 283.764 160.408 285.821 159.3C297.002 153.243 307.765 146.92 318.108 140.331C336.588 128.716 354.266 115.871 371.022 101.884C375.405 98.2098 379.608 94.5158 383.711 90.8018C385.418 89.2444 387.105 87.6869 388.763 86.1095C398.803 76.7248 408.271 66.7464 417.117 56.228C420.231 52.5043 423.207 48.7904 425.992 45.0564C426.292 44.6771 426.591 44.2777 426.871 43.8983C426.591 44.0581 426.291 44.3077 425.972 44.5373L425.972 44.5373L425.972 44.5373ZM92.4959 164.781L92.4959 164.781C92.8753 165.142 93.2446 165.475 93.624 165.781L92.4959 164.781L92.4959 164.781Z" id="Shape#11" fill="url(#gradient_5)" fill-rule="evenodd" stroke="none" />
                            <path d="M93.624 165.781L92.4959 164.781L92.4959 164.781C92.8753 165.014 93.2446 165.414 93.624 165.781L93.624 165.781L93.624 165.781Z" id="Shape#12" fill="url(#gradient_6)" fill-rule="evenodd" stroke="none" />
                          </g>
                          <path d="M490.157 99.2581L487.472 102.253L464.509 65.1238C458.519 71.4435 452.648 77.234 448.226 81.0977L452.159 97.5309L449.464 100.526L438.581 85.6603L422.807 76.4054L425.493 73.4103L442.225 75.6266C445.64 70.8345 450.802 64.375 456.472 57.7857L417.176 38.8167L419.862 35.8216L470.499 42.5706C479.365 33.695 487.062 27.4552 489.349 29.5119C491.635 31.5685 486.204 39.8949 478.277 49.5791L490.157 99.2581L490.157 99.2581Z" id="Shape#13" fill="url(#gradient_7)" fill-rule="evenodd" stroke="none" />
                        </g>
                      </g>
                    </g>
                  </g>
                </g>
              </g>
            </g>
          </g>
        </g>
      </g>
    </g>
  </g>
</svg>